<svg width="357" height="72" viewBox="0 0 357 72" fill="none" xmlns="http://www.w3.org/2000/svg">
<g filter="url(#filter0_d_12_270)">
<path d="M52.2335 26.2641L39.033 33.8757V18.6536L52.2335 11.042V26.2641Z" fill="#F36D0C" stroke="black"/>
<path d="M21.7665 26.2641V11.042L34.967 18.6536V33.8757L21.7665 26.2641Z" fill="#F36D0C" stroke="black"/>
<path d="M51.2329 8.18824L37.0324 0L22.8319 8.18824L37.0324 16.3765L51.2329 8.18824Z" fill="black"/>
<path d="M69.5 55.5229L56.2994 63.1345V47.9124L69.5 40.3008V55.5229Z" fill="#F36D0C" stroke="black"/>
<path d="M39.033 55.5229V40.3008L52.2335 47.9124V63.1345L39.033 55.5229Z" fill="#F36D0C" stroke="black"/>
<path d="M41.0993 37.447L54.2989 29.836L67.4985 37.447L54.2989 45.0581L41.0993 37.447Z" fill="black" stroke="black"/>
<path d="M34.967 55.5229L21.7665 63.1345V47.9124L34.967 40.3008V55.5229Z" fill="#F36D0C" stroke="black"/>
<path d="M4.5 55.5229V40.3008L17.7005 47.9124V63.1345L4.5 55.5229Z" fill="#F36D0C" stroke="black"/>
<path d="M6.56639 37.447L19.766 29.836L32.9655 37.447L19.766 45.0581L6.56639 37.447Z" fill="black" stroke="black"/>
</g>
<g filter="url(#filter1_d_12_270)">
<path d="M104.282 43.16C100.058 43.16 96.8256 42.1893 94.5856 40.248C92.3456 38.2853 91.2256 35.384 91.2256 31.544C91.2256 27.7253 92.3456 24.8347 94.5856 22.872C96.8256 20.9093 100.058 19.9387 104.282 19.96L115.802 20.024V24.12H104.634C101.86 24.12 99.8016 24.7067 98.4576 25.88C97.1136 27.0533 96.4416 28.9413 96.4416 31.544C96.4416 34.1467 97.1136 36.0453 98.4576 37.24C99.8016 38.4133 101.86 39 104.634 39H116.122V43.16H104.282ZM119.318 43V20.12H138.486C140.854 20.12 142.689 20.7173 143.99 21.912C145.313 23.1067 145.974 24.92 145.974 27.352C145.974 29.4213 145.494 31.0427 144.534 32.216C143.574 33.3893 142.209 34.1253 140.438 34.424L145.718 43H139.894L134.998 34.584H124.438V43H119.318ZM137.878 24.28H124.438V30.392L137.878 30.424C138.817 30.424 139.531 30.1893 140.022 29.72C140.534 29.2507 140.79 28.4613 140.79 27.352C140.79 26.2213 140.534 25.432 140.022 24.984C139.531 24.5147 138.817 24.28 137.878 24.28ZM147.898 43L158.202 20.12H166.106L176.41 43H170.842L168.666 38.168H155.642L153.466 43H147.898ZM157.498 34.008H166.81L162.362 24.12H161.946L157.498 34.008ZM178.974 43V20.12H203.422V24.28H184.094V30.616H200.926V34.776H184.094V43H178.974ZM206.143 31.704V20.12H234.303V31.704H229.119V24.28H222.143V43H217.023V24.28H211.327V31.704H206.143Z" fill="black"/>
<path d="M249.162 43V20.12H273.61V24.28H254.282V30.616H271.114V34.776H254.282V43H249.162ZM286.379 43.16C284.053 43.16 282.219 42.8613 280.875 42.264C279.531 41.6453 278.571 40.7173 277.995 39.48C277.419 38.2427 277.131 36.6853 277.131 34.808V20.12H282.251V34.808C282.251 36.4293 282.624 37.5387 283.371 38.136C284.139 38.712 285.429 39 287.243 39H293.419C295.232 39 296.512 38.712 297.259 38.136C298.027 37.5387 298.411 36.4293 298.411 34.808V20.12H303.531V34.808C303.531 36.6853 303.243 38.2427 302.667 39.48C302.091 40.7173 301.131 41.6453 299.787 42.264C298.443 42.8613 296.608 43.16 294.283 43.16H286.379ZM308.006 43V20.12H313.19L329.382 36.568V20.12H334.502V43H329.318L313.126 26.52V43H308.006Z" fill="#F36D0C"/>
</g>
<defs>
<filter id="filter0_d_12_270" x="0" y="0" width="74" height="72" filterUnits="userSpaceOnUse" color-interpolation-filters="sRGB">
<feFlood flood-opacity="0" result="BackgroundImageFix"/>
<feColorMatrix in="SourceAlpha" type="matrix" values="0 0 0 0 0 0 0 0 0 0 0 0 0 0 0 0 0 0 127 0" result="hardAlpha"/>
<feOffset dy="4"/>
<feGaussianBlur stdDeviation="2"/>
<feComposite in2="hardAlpha" operator="out"/>
<feColorMatrix type="matrix" values="0 0 0 0 0 0 0 0 0 0 0 0 0 0 0 0 0 0 0.25 0"/>
<feBlend mode="normal" in2="BackgroundImageFix" result="effect1_dropShadow_12_270"/>
<feBlend mode="normal" in="SourceGraphic" in2="effect1_dropShadow_12_270" result="shape"/>
</filter>
<filter id="filter1_d_12_270" x="87.2256" y="19.928" width="251.276" height="31.232" filterUnits="userSpaceOnUse" color-interpolation-filters="sRGB">
<feFlood flood-opacity="0" result="BackgroundImageFix"/>
<feColorMatrix in="SourceAlpha" type="matrix" values="0 0 0 0 0 0 0 0 0 0 0 0 0 0 0 0 0 0 127 0" result="hardAlpha"/>
<feOffset dy="4"/>
<feGaussianBlur stdDeviation="2"/>
<feComposite in2="hardAlpha" operator="out"/>
<feColorMatrix type="matrix" values="0 0 0 0 0 0 0 0 0 0 0 0 0 0 0 0 0 0 0.25 0"/>
<feBlend mode="normal" in2="BackgroundImageFix" result="effect1_dropShadow_12_270"/>
<feBlend mode="normal" in="SourceGraphic" in2="effect1_dropShadow_12_270" result="shape"/>
</filter>
</defs>
</svg>
